<?xml version="1.0" encoding="utf-8"?>
<svg xmlns="http://www.w3.org/2000/svg" version="1.0" viewBox="0 0 174 126">
	<title>A capital R resting on a curved line.</title>
	<path d="m83 1.3c-0.3 0.3-6.4 1.1-13.5 1.7-22.3 1.9-29.5 3.8-29.5 8 0 2.6 2.9 3.2 12.6 2.8l7.9-0.3v9.5c-0.1 17.5-1.5 33-4.4 48.3-1.6 8.4-3.4 16.5-4 18-0.6 1.6-1.4 6-1.7 9.8-0.9 9.3-2.4 11-8.4 9.9-7.2-1.3-14.1-4.3-22.5-9.9-6.7-4.4-8.5-5.1-11.9-4.9-7.8 0.6-7.4 6.3 0.9 12.3 13.6 9.8 23.3 13.1 49.5 16.6 11.1 1.5 43.2 2.1 50.9 1 19.2-3 25.3-4.3 32.5-7 4.3-1.6 8.5-3.6 9.5-4.4 0.9-0.8 5-3 9.1-5 9.1-4.2 12-6.8 12-10.8 0-4.4-3.7-5.8-9-3.4-2.1 1-4.7 2.7-5.7 3.8-3 3.3-12 8.6-18.3 10.7-3.3 1.1-6.2 2-6.5 2-1 0-5.2-10.2-5.9-14.5-0.4-2.1-1.6-5.5-2.6-7.5-1-1.9-2.5-7-3.4-11.3-0.9-4.4-1.8-8.3-2.1-8.7-1-1.6-5.5-20.5-5.5-23.1 0-3.1 1-4 6.5-5.8 5.5-1.9 8.9-4.4 13-9.8 4.9-6.5 4.5-13.5-1.1-18.4-2.4-2.1-13.9-5.9-17.8-5.9-1.7 0-4.9-0.5-7-1.1-2.2-0.6-5.3-1.2-7-1.4s-6-0.6-9.6-1-6.7-0.5-7-0.2zm13.7 9.6c2.6 0.5 8.1 1.5 12.1 2.2 8.6 1.5 11.7 3.6 13.1 8.7 2.2 7.7-5.4 12.1-24.4 14.1-6.6 0.7-14.5 1.7-17.5 2.1-3.5 0.5-6 0.4-6.7-0.2-0.9-0.7-1.3-4.1-1.2-10.7 0.2-13.4 0.7-15.4 4.4-16.2 4.6-1 14.9-1 20.2 0zm3.7 35.9c0.3 1 1.2 6 2.1 11.2s2.1 10.6 2.7 12c0.5 1.4 1.8 6.1 2.8 10.5s3.6 13.3 5.9 19.8c2.3 6.4 4 12.1 3.7 12.6-1.4 2.2-26.7 2.8-47.1 1.2l-8-0.6 0.3-5c0.1-2.8 1.8-14 3.7-25s4-23.6 4.7-28l1.3-8 12.5-1.6c13.5-1.6 14.7-1.6 15.4 0.9z"/>
</svg>
