<?xml version="1.0" encoding="utf-8"?>
<svg xmlns="http://www.w3.org/2000/svg" version="1.0" viewBox="0 0 185 178">
	<title>A circle with spokes extending from the center to the outer edge.</title>
	<path d="m84.5 2.1c-2.2 0.6-6.9 1.7-10.5 2.6-3.6 0.8-8.5 2.4-11 3.5s-6.1 2.6-8 3.3c-5.7 2-22.8 14.4-31.1 22.6-4.2 4.1-9.3 10-11.3 13.2-6.2 9.6-10.5 23.2-10.8 34.2-0.2 7.2 3.8 25.8 6.3 29 0.4 0.6 2.4 4.8 4.3 9.3 5.9 13.7 21.5 32.7 35.5 43.2 2.9 2.2 6 4 6.9 4s2.5 0.8 3.6 1.9c3.2 2.8 15.2 6.3 23.6 6.8 6.8 0.4 18.7-0.5 35.5-2.7 7.3-0.9 9.7-1.6 15.5-4.2 15.5-6.9 23.2-12.4 29.9-21.3 4.5-5.9 10.1-16.6 10.1-19.2 0-1 2.2-8.3 4.8-16.3l4.7-14.5-0.1-16.5c0-17.9-0.7-22.2-6.6-37.5-1.6-4.4-3.4-9.2-4-10.6-1.8-5-18.4-19.6-25.5-22.5-2.1-0.8-5.1-2.1-6.8-2.9-10-4.5-15-5.4-33.1-5.9-10.6-0.3-19.5-0.1-21.9 0.5zm38.3 9.5c12.1 3.3 14.8 5.6 11.8 9.7-0.9 1.2-3.6 5.1-6 8.7s-6.3 8.7-8.7 11.5c-2.4 2.7-7 8.4-10.1 12.6-8 10.5-8 10.5-17.9 11.3l-8.5 0.7-7-8.3c-3.8-4.5-8.1-10.2-9.7-12.6-1.5-2.4-5-7-7.7-10.3-5.5-6.6-6.1-9-2.7-11.1 5.5-3.6 25.8-11.1 33.2-12.3 11.5-1.8 26.6-1.8 33.3 0.1zm30.2 13.6c1.9 1.3 4.3 4.1 5.5 6.3 1.1 2.2 2.8 5.1 3.7 6.5 1.6 2.5 6.8 18.6 6.8 21.1 0 0.8 0.7 2.7 1.6 4.4 1 1.8 1.8 6.6 2.1 11.7l0.6 8.6-3.9 1.1c-4.4 1.2-30.4 1.4-40.6 0.2-5.5-0.6-7.3-1.2-9.8-3.6-3.2-3.1-8-10.9-8-13 0-1.3 5.7-8.4 19.3-24.5 4-4.7 9.2-11.3 11.6-14.8 2.5-3.5 5.1-6.2 6.1-6.2 0.9 0 3.2 1 5 2.2zm-105.3 11.5c1.9 2.1 6 7.2 9.1 11.3s8 10.3 10.9 13.7c7 8.1 6.9 9.6-1 16.9-6.4 5.9-15.2 10.3-23.7 11.9-4 0.8-13.3 4.5-20.2 8.1-2.5 1.3-5.3 2.1-6.1 1.8-2.4-0.9-4-9.7-3.5-19.3 0.6-10.1 3.7-21.3 7.5-26.7 1.4-2.2 3.9-5.7 5.4-7.9 4.7-6.9 12.7-13.5 16.2-13.5 1.1 0 3.5 1.7 5.4 3.7zm55.8 39.7c1.7 1.3 4.2 4.4 5.4 6.8l2.4 4.3-3.2 7.6c-2.2 5.3-4.5 8.9-8 12.3-4.6 4.5-5.4 4.9-12.3 5.9-7.1 1-7.7 0.9-11.9-1.4-4-2.2-4.4-2.8-4.7-6.8-0.5-6.3 1.4-13.9 4.9-19.7 2.6-4.2 4.2-5.6 9.8-8.2 8.1-3.9 13.2-4.1 17.6-0.8zm38.5 19.3c4.1 0.9 9.8 1.5 12.5 1.4 2.8-0.1 7.3-0.3 10-0.4l5-0.2-0.1 4c-0.1 6.2-5 23.1-9.3 32.2-4 8.2-12.3 18.3-15.2 18.3-2.2-0.1-8.1-3.3-9.1-5-0.4-0.8-2.6-4.4-4.8-8s-5.1-8.8-6.4-11.6c-1.3-2.7-3.7-6.6-5.3-8.5-4.1-4.6-4.6-6.8-2.8-11.9 0.8-2.3 1.5-5.5 1.5-7.1 0-4.8 2.3-6 9.8-5.4 3.7 0.4 10.1 1.3 14.2 2.2zm-81.1 1c1.3 2.6-2.6 55.5-4.4 58.3-0.8 1.3-4.2 1.3-5 0-0.4-0.6-2.9-2.8-5.6-5-2.6-2.1-6.7-6-8.9-8.7-2.2-2.6-5.4-6.2-7.1-8-3.7-3.8-9.3-13-10.8-17.6-1.1-3.4-0.7-6.7 0.9-6.7 0.5 0 1.5-0.6 2.3-1.4 1.6-1.7 13-5.6 16.1-5.6 2.7 0 15.6-4.6 17-6 1.6-1.6 4.4-1.2 5.5 0.7zm54.1 32.8c3.1 6 8.2 14.3 11.3 18.4s5.7 7.8 5.7 8.2c0 1.8-3.5 2.8-22.2 6.4-4.3 0.8-14.4 1.7-22.5 2-18.9 0.8-19.8 0.4-19.8-8 0.1-11.5 1.6-32 2.5-32.9 0.5-0.5 4.5-0.3 9.4 0.4 7.5 1.2 9.1 1.1 13.8-0.4 2.9-0.9 6.9-2.6 8.8-3.6 5.9-3.3 6.9-2.6 13 9.5z"/>
</svg>
